<?xml version="1.0" standalone="no"?>
<!DOCTYPE svg PUBLIC "-//W3C//DTD SVG 20010904//EN"
 "http://www.w3.org/TR/2001/REC-SVG-20010904/DTD/svg10.dtd">
<svg version="1.0" xmlns="http://www.w3.org/2000/svg"
 width="512.000000pt" height="512.000000pt" viewBox="0 0 512.000000 512.000000"
 preserveAspectRatio="xMidYMid meet">

<g transform="translate(0.000000,512.000000) scale(0.100000,-0.100000)"
fill="#fff" stroke="none">
<path d="M122 5069 c-131 -66 -130 -254 1 -318 36 -17 62 -21 150 -21 l107 0
0 -640 0 -640 -37 -19 c-47 -24 -84 -63 -114 -121 l-24 -45 0 -425 c0 -412 1
-426 21 -471 24 -52 79 -111 126 -135 18 -9 60 -19 95 -22 61 -5 63 -6 63 -32
0 -15 -27 -324 -60 -686 -33 -362 -59 -676 -58 -697 l3 -38 180 -83 c99 -46
362 -168 585 -271 223 -103 492 -227 598 -276 l192 -89 114 0 c63 0 117 3 119
8 2 4 0 88 -4 187 -24 591 -171 1101 -431 1501 -155 238 -357 441 -587 589
-147 95 -378 188 -534 215 l-67 12 0 1089 0 1089 199 0 c212 0 238 4 284 48
42 40 57 75 57 134 0 62 -21 103 -76 144 l-37 29 -411 3 c-402 2 -412 2 -454
-19z"/>
<path d="M2525 5084 c-181 -18 -253 -28 -340 -45 -644 -129 -1096 -484 -1314
-1032 -51 -129 -93 -305 -115 -489 l-6 -48 1976 0 1975 0 -6 63 c-12 117 -54
302 -95 421 -137 397 -398 696 -779 894 -305 158 -619 230 -1036 237 -121 1
-238 1 -260 -1z m852 -788 c176 -89 408 -71 582 45 l34 23 -7 -55 c-32 -252
-342 -383 -564 -239 -92 59 -152 159 -152 251 l0 40 28 -19 c15 -11 51 -31 79
-46z"/>
<path d="M747 3103 c-4 -3 -7 -44 -7 -89 0 -78 1 -84 23 -89 24 -6 1594 -285
1602 -285 3 0 5 -585 5 -1300 l0 -1300 358 2 357 3 3 1297 2 1296 28 6 c15 3
371 67 792 141 421 75 773 138 783 141 14 5 17 18 17 95 l0 89 -1978 0 c-1088
0 -1982 -3 -1985 -7z"/>
<path d="M4810 2538 c-295 -62 -569 -213 -810 -444 -271 -260 -466 -594 -593
-1014 -82 -269 -137 -644 -137 -933 l0 -108 128 3 127 4 445 208 c245 114 591
275 770 358 179 83 326 151 327 152 2 2 -163 1661 -173 1739 -6 52 -7 52 -84
35z"/>
</g>
</svg>
